Coordinates
version=1
nRows=40
nColumns=34
inDegrees=no

Units are S.I. units (second, meters, Newtons, ...)
If the header above contains a line with 'inDegrees', this indicates whether rotational values are in degrees (yes) or radians (no).

endheader
time	pelvis_tilt	pelvis_list	pelvis_rotation	pelvis_tx	pelvis_ty	pelvis_tz	hip_flexion_r	hip_adduction_r	hip_rotation_r	knee_angle_r	ankle_angle_r	subtalar_angle_r	mtp_angle_r	hip_flexion_l	hip_adduction_l	hip_rotation_l	knee_angle_l	ankle_angle_l	subtalar_angle_l	mtp_angle_l	lumbar_extension	lumbar_bending	lumbar_rotation	arm_flex_r	arm_add_r	arm_rot_r	elbow_flex_r	pro_sup_r	arm_flex_l	arm_add_l	arm_rot_l	elbow_flex_l	pro_sup_l
0.45	0.0479451	-0.0188262	0.0196336	0.400247	0.956776	-0.220477	-0.0759074	0.0475868	0.0341324	0.230764	0.498907	0.432941	0	0.390986	-0.0903268	0.156591	0.134334	0.160989	0.307638	0	-0.171728	0.0316551	-0.0133367	-0.194666	-0.204555	-0.187442	0.785181	2.09	-0.275799	-0.0957759	-0.443637	0.53979	2.09
0.46	0.0539922	-0.0215928	0.0185378	0.412096	0.95489	-0.220969	-0.0989897	0.0508372	0.0373204	0.22706	0.509219	0.431644	0	0.385163	-0.0920101	0.175087	0.102299	0.15279	0.274928	0	-0.18009	0.0346916	-0.0136577	-0.18848	-0.205212	-0.18876	0.787882	2.09	-0.275208	-0.0959795	-0.444628	0.537258	2.09
0.47	0.0590559	-0.0238449	0.0177506	0.424044	0.952891	-0.22153	-0.121425	0.0534494	0.0406205	0.222885	0.519526	0.429766	0	0.381698	-0.093261	0.187483	0.0771574	0.145852	0.249557	0	-0.187183	0.0370416	-0.0142029	-0.18294	-0.204961	-0.191467	0.790295	2.09	-0.274513	-0.0964863	-0.445566	0.535025	2.09
0.48	0.0629911	-0.0254594	0.0173037	0.436101	0.950798	-0.22217	-0.142964	0.0552602	0.0436183	0.218376	0.529739	0.42753	0	0.380682	-0.0935313	0.195184	0.059125	0.140563	0.231006	0	-0.192779	0.0385826	-0.0149959	-0.178123	-0.203851	-0.195311	0.792318	2.09	-0.273763	-0.0973184	-0.446416	0.5331	2.09
0.49	0.0658007	-0.0263443	0.017152	0.448279	0.948631	-0.222893	-0.163618	0.0562353	0.0466424	0.213501	0.539475	0.424256	0	0.381598	-0.0924821	0.201797	0.0475305	0.136129	0.214905	0	-0.19684	0.0392106	-0.0158844	-0.174167	-0.201922	-0.20021	0.793937	2.09	-0.272935	-0.0984953	-0.447108	0.531449	2.09
0.5	0.0668883	-0.0266181	0.0171307	0.460565	0.946351	-0.223689	-0.182256	0.0564333	0.0488494	0.209096	0.548842	0.421096	0	0.385473	-0.0902804	0.204653	0.0431823	0.134163	0.206103	0	-0.19868	0.0389993	-0.0166464	-0.171156	-0.199411	-0.205508	0.794931	2.09	-0.272085	-0.0999656	-0.447671	0.53001	2.09
0.51	0.0667246	-0.026187	0.0171234	0.472975	0.944009	-0.224553	-0.199548	0.0558409	0.0510703	0.204886	0.557282	0.417047	0	0.391075	-0.0868368	0.206113	0.0449075	0.133659	0.200678	0	-0.198868	0.037831	-0.0169528	-0.169216	-0.196291	-0.211556	0.795523	2.09	-0.271067	-0.101719	-0.448109	0.528834	2.09
0.52	0.0651786	-0.0251777	0.016946	0.485514	0.941602	-0.225473	-0.215107	0.0545873	0.0534854	0.20132	0.564524	0.412087	0	0.398336	-0.0823862	0.205331	0.05232	0.134693	0.199197	0	-0.197277	0.035796	-0.0165585	-0.168374	-0.1928	-0.217797	0.795656	2.09	-0.269917	-0.103666	-0.448513	0.52799	2.09
0.53	0.0624765	-0.0236394	0.0164624	0.498197	0.939164	-0.226432	-0.229101	0.0527029	0.0563123	0.198568	0.570269	0.406202	0	0.406661	-0.0771219	0.201615	0.0646927	0.136971	0.201728	0	-0.194183	0.0329113	-0.0153011	-0.168618	-0.189093	-0.223826	0.795353	2.09	-0.268661	-0.105742	-0.448997	0.527608	2.09
0.54	0.0589084	-0.0215915	0.0155838	0.511047	0.936741	-0.227402	-0.241978	0.0503331	0.0610616	0.19641	0.573846	0.397491	0	0.415713	-0.0713405	0.192154	0.0817291	0.140842	0.211767	0	-0.189915	0.0291549	-0.0130521	-0.169961	-0.185176	-0.229563	0.794671	2.09	-0.267314	-0.107957	-0.449566	0.527773	2.09
0.55	0.0547686	-0.0198865	0.0143298	0.524079	0.93439	-0.228285	-0.255634	0.0498365	0.0814467	0.19195	0.570309	0.366938	0	0.427208	-0.0671497	0.161517	0.106408	0.151996	0.253892	0	-0.184803	0.0253077	-0.00993683	-0.172133	-0.181255	-0.233914	0.793299	2.09	-0.266022	-0.110256	-0.45062	0.528642	2.09
0.56	0.0506511	-0.0164031	0.0125354	0.537332	0.932177	-0.22926	-0.266411	0.0452131	0.0830071	0.193081	0.571021	0.362651	0	0.43344	-0.0600069	0.15464	0.125864	0.149306	0.256658	0	-0.17948	0.0193302	-0.00625122	-0.175136	-0.177481	-0.236662	0.791366	2.09	-0.264814	-0.112624	-0.45179	0.530103	2.09
0.57	0.046559	-0.0121402	0.0103087	0.550771	0.93015	-0.230207	-0.276444	0.0397304	0.0857852	0.195768	0.569127	0.35659	0	0.438517	-0.0524663	0.144075	0.146357	0.143677	0.264646	0	-0.174007	0.0121433	-0.00206022	-0.178694	-0.173668	-0.237936	0.78864	2.09	-0.263618	-0.115097	-0.453415	0.532065	2.09
0.58	0.042628	-0.00696593	0.00771626	0.564366	0.92836	-0.231139	-0.285393	0.0331795	0.0888275	0.200765	0.564675	0.350059	0	0.442046	-0.044305	0.132507	0.166519	0.133382	0.274625	0	-0.168588	0.00364668	0.0023903	-0.182542	-0.169814	-0.2377	0.784981	2.09	-0.262349	-0.117686	-0.455338	0.534267	2.09
0.59	0.0388854	-0.000789346	0.00485935	0.578077	0.926851	-0.232076	-0.292694	0.0253968	0.0910725	0.208998	0.557718	0.344583	0	0.444021	-0.0352661	0.121816	0.18559	0.118124	0.284243	0	-0.163323	-0.00619742	0.00686229	-0.186424	-0.165871	-0.236188	0.780301	2.09	-0.260885	-0.120372	-0.45743	0.536434	2.09
0.6	0.0352745	0.00638199	0.00190121	0.591865	0.925659	-0.233043	-0.297645	0.0163216	0.0914224	0.221461	0.548231	0.341804	0	0.444849	-0.0251762	0.112903	0.20368	0.0994957	0.292118	0	-0.158217	-0.0173051	0.0111072	-0.19015	-0.161783	-0.233737	0.774574	2.09	-0.259113	-0.123128	-0.45951	0.538316	2.09
0.61	0.0316878	0.0144023	-0.000922654	0.605699	0.924808	-0.234064	-0.299525	0.00603016	0.0889182	0.239079	0.536033	0.343204	0	0.445311	-0.014041	0.10576	0.221859	0.0808238	0.297837	0	-0.153191	-0.0294314	0.0148604	-0.193645	-0.157512	-0.230687	0.76787	2.09	-0.25696	-0.125915	-0.461363	0.539722	2.09
0.62	0.0280117	0.0229662	-0.00331365	0.619566	0.924312	-0.235163	-0.297681	-0.00525549	0.0829384	0.262612	0.520724	0.349761	0	0.446386	-0.00208785	0.0997937	0.241878	0.0662716	0.301808	0	-0.148126	-0.0421463	0.0178494	-0.196962	-0.153068	-0.227301	0.760372	2.09	-0.254398	-0.128683	-0.462759	0.540546	2.09
0.63	0.0241764	0.0316389	-0.00495478	0.63346	0.924172	-0.236365	-0.291596	-0.0172111	0.0733513	0.292615	0.501664	0.361658	0	0.448861	0.0102751	0.0943858	0.265352	0.0594099	0.304789	0	-0.142912	-0.054866	0.0198248	-0.200258	-0.148532	-0.223729	0.752366	2.09	-0.251427	-0.131366	-0.463465	0.54075	2.09
0.64	0.0199443	0.0400471	-0.00560124	0.647378	0.924354	-0.237699	-0.280277	-0.0300902	0.0579937	0.330107	0.478984	0.381989	0	0.453292	0.0225235	0.0884045	0.293022	0.0621821	0.308676	0	-0.13721	-0.0670618	0.0205885	-0.203738	-0.144083	-0.219871	0.744134	2.09	-0.248121	-0.133868	-0.463301	0.540363	2.09
0.65	0.0158742	0.0477549	-0.00508002	0.661329	0.924893	-0.23918	-0.264782	-0.0428738	0.0422945	0.37395	0.449979	0.402186	0	0.457957	0.0345916	0.0845869	0.322916	0.0730871	0.310191	0	-0.131598	-0.0781459	0.0200654	-0.20755	-0.139842	-0.215881	0.736089	2.09	-0.244362	-0.136149	-0.461964	0.539359	2.09
0.66	0.0117647	0.0549769	-0.00343919	0.67529	0.925729	-0.240837	-0.244109	-0.0569822	0.0226734	0.425159	0.415403	0.427035	0	0.462036	0.0465101	0.082064	0.352795	0.0898679	0.310981	0	-0.12578	-0.0882461	0.018196	-0.211747	-0.136024	-0.211384	0.728349	2.09	-0.240251	-0.138158	-0.45939	0.537851	2.09
0.67	0.00900214	0.0611092	-0.000974377	0.689247	0.926968	-0.242591	-0.221338	-0.0685997	0.013179	0.480279	0.369831	0.433375	0	0.462054	0.058239	0.0847476	0.378806	0.108241	0.305652	0	-0.121362	-0.0967289	0.0152284	-0.216022	-0.132688	-0.206432	0.720992	2.09	-0.235474	-0.139919	-0.455474	0.53584	2.09
0.68	0.00595943	0.0670876	0.00213104	0.703127	0.928379	-0.244489	-0.193022	-0.082079	0.000992821	0.541941	0.317355	0.440064	0	0.459808	0.0697048	0.0873689	0.400304	0.127249	0.301651	0	-0.116424	-0.104521	0.0111317	-0.220423	-0.130076	-0.200214	0.713858	2.09	-0.230466	-0.14154	-0.449865	0.533468	2.09
0.69	0.00356915	0.0728763	0.00534892	0.716889	0.929988	-0.246437	-0.161392	-0.0959311	-0.00782692	0.60726	0.255882	0.437086	0	0.453617	0.0805455	0.0897666	0.415761	0.145396	0.298954	0	-0.112114	-0.111663	0.00627391	-0.224593	-0.128099	-0.192975	0.707084	2.09	-0.225075	-0.143123	-0.442656	0.530994	2.09
0.7	0.00148426	0.0785487	0.00830062	0.730487	0.931698	-0.248364	-0.126688	-0.110098	-0.0132088	0.674528	0.186303	0.424107	0	0.444104	0.0903977	0.0907398	0.425352	0.162516	0.298983	0	-0.108043	-0.118309	0.000867799	-0.228328	-0.126751	-0.18455	0.700583	2.09	-0.219464	-0.144835	-0.433581	0.528545	2.09
0.71	-0.00043782	0.0841145	0.010628	0.743885	0.93344	-0.250199	-0.0896637	-0.124378	-0.0152624	0.741588	0.111432	0.402071	0	0.4319	0.0990302	0.0897185	0.429822	0.178841	0.302224	0	-0.104071	-0.124563	-0.00488869	-0.231441	-0.125929	-0.175095	0.694368	2.09	-0.213753	-0.146812	-0.422531	0.526276	2.09
0.72	-0.00231701	0.0895015	0.0120426	0.757057	0.935167	-0.251879	-0.0511513	-0.138443	-0.0142941	0.806379	0.0365938	0.373088	0	0.417731	0.106352	0.0867287	0.430218	0.19462	0.308276	0	-0.100092	-0.130435	-0.0108344	-0.233793	-0.125477	-0.165001	0.688478	2.09	-0.208023	-0.149124	-0.409557	0.524327	2.09
0.73	-0.00425408	0.0945873	0.0123077	0.769983	0.93686	-0.253358	-0.0118339	-0.151865	-0.0105974	0.867364	-0.0309595	0.339617	0	0.402271	0.11237	0.0821613	0.427554	0.209912	0.316151	0	-0.0960413	-0.135862	-0.0167985	-0.235296	-0.125209	-0.154872	0.682958	2.09	-0.20228	-0.151766	-0.394904	0.52281	2.09
0.74	-0.00633756	0.0992431	0.0112173	0.782646	0.938522	-0.254611	0.027933	-0.164196	-0.00438204	0.923683	-0.0840019	0.303568	0	0.386039	0.11714	0.0765205	0.422578	0.224559	0.32465	0	-0.0918825	-0.140744	-0.0225516	-0.235928	-0.124931	-0.145452	0.677839	2.09	-0.196438	-0.154664	-0.378959	0.52179	2.09
0.75	-0.00862371	0.103359	0.00862149	0.795037	0.940171	-0.255623	0.0680636	-0.175043	0.00412399	0.974893	-0.117737	0.265882	0	0.36934	0.12074	0.0702783	0.415694	0.238266	0.332688	0	-0.0876105	-0.144979	-0.0278187	-0.235749	-0.124463	-0.137497	0.673116	2.09	-0.190342	-0.157725	-0.362131	0.521273	2.09
0.76	-0.0110851	0.106818	0.00450597	0.807168	0.941831	-0.256398	0.108472	-0.18407	0.0144731	1.02052	-0.131271	0.226854	0	0.352228	0.12323	0.0638769	0.407031	0.250722	0.33949	0	-0.0832965	-0.148441	-0.032372	-0.234911	-0.123659	-0.131628	0.668758	2.09	-0.183811	-0.16087	-0.344752	0.521229	2.09
0.77	-0.0136476	0.109329	-0.000975765	0.819066	0.943524	-0.256934	0.148927	-0.190737	0.0259939	1.05985	-0.127687	0.186426	0	0.334795	0.124215	0.05665	0.396929	0.262186	0.346438	0	-0.0790351	-0.15081	-0.0360082	-0.233705	-0.122378	-0.128474	0.664815	2.09	-0.176643	-0.164085	-0.326868	0.521543	2.09
0.78	-0.0156535	0.110909	-0.00713709	0.830795	0.945329	-0.257308	0.188109	-0.195401	0.0370359	1.09179	-0.111454	0.147683	0	0.315771	0.124798	0.0527227	0.384547	0.271149	0.348172	0	-0.0756399	-0.15209	-0.039594	-0.232031	-0.120801	-0.127239	0.660986	2.09	-0.169029	-0.167095	-0.309958	0.522736	2.09
0.79	-0.0172929	0.11098	-0.0136438	0.842392	0.947221	-0.257505	0.225939	-0.197028	0.0471678	1.11584	-0.0894377	0.109581	0	0.295921	0.12376	0.0494678	0.370992	0.278835	0.349406	0	-0.0728566	-0.151656	-0.0427365	-0.230478	-0.118797	-0.128696	0.657641	2.09	-0.160698	-0.170199	-0.292439	0.524262	2.09
0.8	-0.0180864	0.109321	-0.0197244	0.853913	0.949243	-0.257593	0.261212	-0.195691	0.0551909	1.13151	-0.0656613	0.0752895	0	0.274672	0.121225	0.0481721	0.356363	0.28506	0.349364	0	-0.0713098	-0.149248	-0.0462239	-0.229072	-0.116573	-0.132285	0.654867	2.09	-0.151857	-0.173166	-0.275354	0.526546	2.09
0.81	-0.0178848	0.105868	-0.0248227	0.865393	0.951396	-0.257634	0.293305	-0.191527	0.0606529	1.13884	-0.0424472	0.0467807	0	0.251919	0.117281	0.0494446	0.340874	0.289759	0.347704	0	-0.0712239	-0.144765	-0.050536	-0.227876	-0.114358	-0.137422	0.652802	2.09	-0.142689	-0.175855	-0.259237	0.529846	2.09
0.82	-0.0167193	0.100781	-0.028618	0.876846	0.953656	-0.257685	0.321994	-0.184908	0.0636107	1.13818	-0.0202555	0.0254874	0	0.227787	0.112116	0.0534628	0.324699	0.292914	0.34421	0	-0.0725928	-0.138321	-0.0559216	-0.226937	-0.112411	-0.143418	0.65155	2.09	-0.133348	-0.178131	-0.244535	0.534325	2.09
0.83	-0.0147759	0.0944096	-0.0310478	0.888268	0.955973	-0.257794	0.347407	-0.176414	0.0644557	1.13003	0.00143223	0.0121136	0	0.202605	0.106028	0.0600578	0.307993	0.294543	0.338728	0	-0.0751944	-0.130227	-0.0623732	-0.226292	-0.110972	-0.149544	0.651148	2.09	-0.12391	-0.179895	-0.231558	0.540001	2.09
0.84	-0.0123442	0.0872003	-0.0322534	0.899643	0.958283	-0.257984	0.369897	-0.166714	0.0636814	1.11487	0.0231385	0.00649102	0	0.176869	0.0993528	0.0688098	0.290979	0.294754	0.331245	0	-0.0786519	-0.120909	-0.0696781	-0.225973	-0.110222	-0.155136	0.651557	2.09	-0.11437	-0.181106	-0.220426	0.546752	2.09
